<svg xmlns="http://www.w3.org/2000/svg" xmlns:xlink="http://www.w3.org/1999/xlink" xmlns:lucid="lucid" width="1389.59" height="881.32"><g transform="translate(-97.76620947627816 -42.13320864504203)" lucid:page-tab-id="0_0"><path d="M0 0h1870.87v1322.83H0z" fill="#fff"/><path d="M962.74 85.86c2.77 1.8 7.7 3.27 11.03 3.27h487.58c3.32 0 6 2.7 6 6v802.32c0 3.3-2.68 6-6 6H123.77c-3.32 0-6-2.7-6-6V69.13c0-3.3 2.68-6 6-6h798c3.3 0 8.25 1.47 11.03 3.27zm-844.97 3.27h850" stroke="#3a414a" fill="#fff"/><use xlink:href="#a" transform="matrix(1,0,0,1,125.76620947627816,63.13320864504203) translate(0 17.77777777777778)"/><path d="M309.13 174.15c.75 3.23 4.04 5.85 7.35 5.85h67.2c3.33 0 6 2.7 6 6v112.53c0 3.3-2.67 6-6 6H182.5c-3.3 0-6-2.7-6-6V160c0-3.3 2.7-6 6-6h116c3.3 0 6.6 2.62 7.35 5.85zM176.48 180h134" stroke="#3a414a" fill="#fff"/><use xlink:href="#b" transform="matrix(1,0,0,1,184.48067331674974,154.0008312552236) translate(0 17.77777777777778)"/><path d="M309.13 450.95c.75 3.23 4.04 5.85 7.35 5.85h67.2c3.33 0 6 2.68 6 6v112.53c0 3.3-2.67 6-6 6H182.5c-3.3 0-6-2.7-6-6V436.8c0-3.32 2.7-6 6-6h116c3.3 0 6.6 2.62 7.35 5.84zm-132.65 5.85h134" stroke="#3a414a" fill="#fff"/><use xlink:href="#c" transform="matrix(1,0,0,1,184.48067331674977,430.79758935996176) translate(0 17.77777777777778)"/><path d="M1121.1 175.68c2.3 2.38 6.83 4.32 10.15 4.32h289.73c3.32 0 6 2.7 6 6v389.33c0 3.3-2.68 6-6 6H617.25c-3.32 0-6-2.7-6-6V160c0-3.3 2.68-6 6-6h477c3.3 0 7.86 1.94 10.16 4.33zM611.24 180h514" stroke="#3a414a" fill="#fff"/><use xlink:href="#d" transform="matrix(1,0,0,1,619.2472984206566,154.0008312552236) translate(0 17.77777777777778)"/><use xlink:href="#e" transform="matrix(1,0,0,1,619.2472984206566,154.0008312552236) translate(66.60493827160494 17.77777777777778)"/><path d="M839.06 228.92c1.2 3.1 4.84 5.6 8.16 5.6h111.04c3.3 0 6 2.7 6 6v87.37c0 3.3-2.7 6-6 6H638.22c-3.32 0-6-2.7-6-6V214.5c0-3.3 2.68-6 6-6h187c3.3 0 6.96 2.5 8.15 5.6zm-206.84 5.6h209" stroke="#3a414a" fill="#fff"/><use xlink:href="#f" transform="matrix(1,0,0,1,640.2167497921432,208.5214048213084) translate(0 17.77777777777778)"/><use xlink:href="#g" transform="matrix(1,0,0,1,640.2167497921432,208.5214048213084) translate(69.01234567901233 17.77777777777778)"/><path d="M609.75 241.86h-9.1m-9.1 0H573.3m-9.1 0h-18.2m-9.12 0h-18.2m-9.12 0h-18.15m-9.04 0h-18.1m-9.02 0H437.2m-9.04 0H410.1m-9.05 0H392" stroke="#3a414a" stroke-width="2" fill="none"/><path d="M610.75 242.86h-1.03v-2h1.03z" stroke="#3a414a" stroke-width=".05" fill="#3a414a"/><path d="M409.37 231.67l-17.2 10.18 17.2 10.18M391.2 518.64h9.1m9.1 0h18.22m9.1 0h18.2m9.12 0h18.2m9.12 0H509.52m9.03 0h18.08m9.04 0h18.07m9.04 0h18.07m9.04 0h9.03" stroke="#3a414a" stroke-width="2" fill="none"/><path d="M391.22 519.64h-1.03v-2h1.02z" stroke="#3a414a" stroke-width=".05" fill="#3a414a"/><path d="M591.57 528.8l17.2-10.17-17.2-10.18M391.2 802.43h9.94m9.94 0h19.88m9.94 0h19.88m9.94 0h19.88m9.94 0h19.88m9.94 0h19.9m9.93 0h19.87m9.94 0h19.9m9.93 0h19.88m9.95 0h19.88m9.94 0h19.9m9.93 0h19.88m9.94 0H759m9.94 0h19.88m9.94 0h9.94l3.03-.82 2.15-2.14.82-3.03V786.3m0-10.13V755.9m0-10.13V725.5m0-10.13V695.1m0-10.13V664.7m0-10.13V634.3m0-10.12V603.9m0-10.12v-10.13" stroke="#3a414a" stroke-width="2" fill="none"/><path d="M391.22 803.43h-1.03v-2h1.02z" stroke="#3a414a" stroke-width=".05" fill="#3a414a"/><path d="M824.88 601l-10.18-17.2-10.18 17.2" stroke="#3a414a" stroke-width="2" fill="none"/><path d="M309.13 727.75c.75 3.23 4.04 5.84 7.35 5.84h67.2c3.33 0 6 2.68 6 6V852.1c0 3.32-2.67 6-6 6H182.5c-3.3 0-6-2.68-6-6V713.6c0-3.32 2.7-6 6-6h116c3.3 0 6.6 2.6 7.35 5.84zm-132.65 5.84h134" stroke="#3a414a" fill="#fff"/><use xlink:href="#h" transform="matrix(1,0,0,1,184.48067331674977,707.5943474646999) translate(0 17.77777777777778)"/><path d="M839.06 446.1c1.2 3.1 4.84 5.6 8.16 5.6h111.04c3.3 0 6 2.7 6 6v87.37c0 3.32-2.7 6-6 6H638.22c-3.32 0-6-2.68-6-6V431.7c0-3.3 2.68-6 6-6h187c3.3 0 6.96 2.5 8.15 5.6zm-206.84 5.6h209" stroke="#3a414a" fill="#fff"/><use xlink:href="#i" transform="matrix(1,0,0,1,640.2167497921432,425.70573566084784) translate(0 17.77777777777778)"/><use xlink:href="#j" transform="matrix(1,0,0,1,640.2167497921432,425.70573566084784) translate(52.96296296296296 17.77777777777778)"/><path d="M1278.02 228.92c1.2 3.1 4.84 5.6 8.16 5.6h111.04c3.3 0 6 2.7 6 6v87.37c0 3.3-2.7 6-6 6h-320.04c-3.32 0-6-2.7-6-6V214.5c0-3.3 2.68-6 6-6h187c3.3 0 6.96 2.5 8.15 5.6zm-206.84 5.6h209" stroke="#3a414a" fill="#fff"/><use xlink:href="#k" transform="matrix(1,0,0,1,1079.1772651704075,208.5214048213084) translate(0 17.77777777777778)"/><path d="M1278.02 446.1c1.2 3.1 4.84 5.6 8.16 5.6h111.04c3.3 0 6 2.7 6 6v87.37c0 3.32-2.7 6-6 6h-320.04c-3.32 0-6-2.68-6-6V431.7c0-3.3 2.68-6 6-6h187c3.3 0 6.96 2.5 8.15 5.6zm-206.84 5.6h209" stroke="#3a414a" fill="#fff"/><use xlink:href="#l" transform="matrix(1,0,0,1,1079.1772651704077,425.70573566084784) translate(0 17.77777777777778)"/><path d="M965.76 271.2h11.45m11.47 0h22.9m11.47 0h22.9m11.46 0h11.46" stroke="#3a414a" stroke-width="2" fill="none"/><path d="M965.78 272.2h-1.02v-2h1.02z" stroke="#3a414a" stroke-width=".05" fill="#3a414a"/><path d="M1051.5 281.4l17.2-10.2-17.2-10.18M798.24 335.4v9.77m0 9.77v19.56m0 9.78v19.55m0 9.78v9.8" stroke="#3a414a" stroke-width="2" fill="none"/><path d="M799.24 335.4h-2v-1h2z" stroke="#3a414a" stroke-width=".05" fill="#3a414a"/><path d="M788.06 406.03l10.18 17.2 10.18-17.2M798.24 335.4v12.8m0 12.8v12.8l.82 3.03 2.15 2.15 3.04.82h10.2m10.2 0h20.4m10.2 0h20.4m10.2 0h20.4m10.2 0h20.38m10.2 0h20.4m10.2 0h20.4m10.2 0h20.4m10.2 0h20.4m10.2 0h20.4m10.2 0h20.4m10.2 0H1151m10.2 0h20.4m10.2 0h10.2l3.03.82 2.15 2.15.82 3.03v12.53m0 12.53v12.53" stroke="#3a414a" stroke-width="2" fill="none"/><path d="M799.24 335.4h-2v-1h2z" stroke="#3a414a" stroke-width=".05" fill="#3a414a"/><path d="M1197.82 406.03l10.18 17.2 10.18-17.2" stroke="#3a414a" stroke-width="2" fill="none"/><defs><path fill="#3a414a" d="M240 0l2-218c-23 76-54 145-80 218h-23L58-218 59 0H30v-248h44l77 211c21-75 51-140 76-211h43V0h-30" id="m"/><path fill="#3a414a" d="M141-36C126-15 110 5 73 4 37 3 15-17 15-53c-1-64 63-63 125-63 3-35-9-54-41-54-24 1-41 7-42 31l-33-3c5-37 33-52 76-52 45 0 72 20 72 64v82c-1 20 7 32 28 27v20c-31 9-61-2-59-35zM48-53c0 20 12 33 32 33 41-3 63-29 60-74-43 2-92-5-92 41" id="n"/><path fill="#3a414a" d="M24-231v-30h32v30H24zM24 0v-190h32V0H24" id="o"/><path fill="#3a414a" d="M117-194c89-4 53 116 60 194h-32v-121c0-31-8-49-39-48C34-167 62-67 57 0H25l-1-190h30c1 10-1 24 2 32 11-22 29-35 61-36" id="p"/><g id="a"><use transform="matrix(0.06172839506172839,0,0,0.06172839506172839,0,0)" xlink:href="#m"/><use transform="matrix(0.06172839506172839,0,0,0.06172839506172839,18.456790123456788,0)" xlink:href="#n"/><use transform="matrix(0.06172839506172839,0,0,0.06172839506172839,30.80246913580247,0)" xlink:href="#o"/><use transform="matrix(0.06172839506172839,0,0,0.06172839506172839,35.67901234567901,0)" xlink:href="#p"/></g><path fill="#3a414a" d="M212-179c-10-28-35-45-73-45-59 0-87 40-87 99 0 60 29 101 89 101 43 0 62-24 78-52l27 14C228-24 195 4 139 4 59 4 22-46 18-125c-6-104 99-153 187-111 19 9 31 26 39 46" id="q"/><path fill="#3a414a" d="M100-194c62-1 85 37 85 99 1 63-27 99-86 99S16-35 15-95c0-66 28-99 85-99zM99-20c44 1 53-31 53-75 0-43-8-75-51-75s-53 32-53 75 10 74 51 75" id="r"/><path fill="#3a414a" d="M59-47c-2 24 18 29 38 22v24C64 9 27 4 27-40v-127H5v-23h24l9-43h21v43h35v23H59v120" id="s"/><path fill="#3a414a" d="M114-163C36-179 61-72 57 0H25l-1-190h30c1 12-1 29 2 39 6-27 23-49 58-41v29" id="t"/><path fill="#3a414a" d="M24 0v-261h32V0H24" id="u"/><path fill="#3a414a" d="M100-194c63 0 86 42 84 106H49c0 40 14 67 53 68 26 1 43-12 49-29l28 8c-11 28-37 45-77 45C44 4 14-33 15-96c1-61 26-98 85-98zm52 81c6-60-76-77-97-28-3 7-6 17-6 28h103" id="v"/><g id="b"><use transform="matrix(0.06172839506172839,0,0,0.06172839506172839,0,0)" xlink:href="#q"/><use transform="matrix(0.06172839506172839,0,0,0.06172839506172839,15.987654320987653,0)" xlink:href="#r"/><use transform="matrix(0.06172839506172839,0,0,0.06172839506172839,28.333333333333332,0)" xlink:href="#p"/><use transform="matrix(0.06172839506172839,0,0,0.06172839506172839,40.67901234567901,0)" xlink:href="#s"/><use transform="matrix(0.06172839506172839,0,0,0.06172839506172839,46.851851851851855,0)" xlink:href="#t"/><use transform="matrix(0.06172839506172839,0,0,0.06172839506172839,54.19753086419753,0)" xlink:href="#r"/><use transform="matrix(0.06172839506172839,0,0,0.06172839506172839,66.54320987654322,0)" xlink:href="#u"/><use transform="matrix(0.06172839506172839,0,0,0.06172839506172839,71.41975308641976,0)" xlink:href="#u"/><use transform="matrix(0.06172839506172839,0,0,0.06172839506172839,76.2962962962963,0)" xlink:href="#v"/><use transform="matrix(0.06172839506172839,0,0,0.06172839506172839,88.64197530864199,0)" xlink:href="#t"/></g><path fill="#3a414a" d="M137 0h-34L2-248h35l83 218 83-218h36" id="w"/><path fill="#3a414a" d="M143 4C61 4 22-44 18-125c-5-107 100-154 193-111 17 8 29 25 37 43l-32 9c-13-25-37-40-76-40-61 0-88 39-88 99 0 61 29 100 91 101 35 0 62-11 79-27v-45h-74v-28h105v86C228-13 192 4 143 4" id="x"/><path fill="#3a414a" d="M205 0l-28-72H64L36 0H1l101-248h38L239 0h-34zm-38-99l-47-123c-12 45-31 82-46 123h93" id="y"/><g id="c"><use transform="matrix(0.06172839506172839,0,0,0.06172839506172839,0,0)" xlink:href="#w"/><use transform="matrix(0.06172839506172839,0,0,0.06172839506172839,14.814814814814813,0)" xlink:href="#x"/><use transform="matrix(0.06172839506172839,0,0,0.06172839506172839,32.09876543209876,0)" xlink:href="#y"/></g><path fill="#3a414a" d="M210-169c-67 3-38 105-44 169h-31v-121c0-29-5-50-35-48C34-165 62-65 56 0H25l-1-190h30c1 10-1 24 2 32 10-44 99-50 107 0 11-21 27-35 58-36 85-2 47 119 55 194h-31v-121c0-29-5-49-35-48" id="z"/><g id="d"><use transform="matrix(0.06172839506172839,0,0,0.06172839506172839,0,0)" xlink:href="#x"/><use transform="matrix(0.06172839506172839,0,0,0.06172839506172839,17.28395061728395,0)" xlink:href="#n"/><use transform="matrix(0.06172839506172839,0,0,0.06172839506172839,29.629629629629626,0)" xlink:href="#z"/><use transform="matrix(0.06172839506172839,0,0,0.06172839506172839,48.08641975308642,0)" xlink:href="#v"/></g><path fill="#3a414a" d="M30 0v-248h33v221h125V0H30" id="A"/><path fill="#3a414a" d="M177-190C167-65 218 103 67 71c-23-6-38-20-44-43l32-5c15 47 100 32 89-28v-30C133-14 115 1 83 1 29 1 15-40 15-95c0-56 16-97 71-98 29-1 48 16 59 35 1-10 0-23 2-32h30zM94-22c36 0 50-32 50-73 0-42-14-75-50-75-39 0-46 34-46 75s6 73 46 73" id="B"/><path fill="#3a414a" d="M96-169c-40 0-48 33-48 73s9 75 48 75c24 0 41-14 43-38l32 2c-6 37-31 61-74 61-59 0-76-41-82-99-10-93 101-131 147-64 4 7 5 14 7 22l-32 3c-4-21-16-35-41-35" id="C"/><g id="e"><use transform="matrix(0.06172839506172839,0,0,0.06172839506172839,0,0)" xlink:href="#A"/><use transform="matrix(0.06172839506172839,0,0,0.06172839506172839,12.345679012345679,0)" xlink:href="#r"/><use transform="matrix(0.06172839506172839,0,0,0.06172839506172839,24.691358024691358,0)" xlink:href="#B"/><use transform="matrix(0.06172839506172839,0,0,0.06172839506172839,37.03703703703704,0)" xlink:href="#o"/><use transform="matrix(0.06172839506172839,0,0,0.06172839506172839,41.91358024691358,0)" xlink:href="#C"/></g><path fill="#3a414a" d="M30-248c87 1 191-15 191 75 0 78-77 80-158 76V0H30v-248zm33 125c57 0 124 11 124-50 0-59-68-47-124-48v98" id="D"/><path fill="#3a414a" d="M179-190L93 31C79 59 56 82 12 73V49c39 6 53-20 64-50L1-190h34L92-34l54-156h33" id="E"/><g id="f"><use transform="matrix(0.06172839506172839,0,0,0.06172839506172839,0,0)" xlink:href="#D"/><use transform="matrix(0.06172839506172839,0,0,0.06172839506172839,14.814814814814813,0)" xlink:href="#u"/><use transform="matrix(0.06172839506172839,0,0,0.06172839506172839,19.691358024691354,0)" xlink:href="#n"/><use transform="matrix(0.06172839506172839,0,0,0.06172839506172839,32.03703703703703,0)" xlink:href="#E"/><use transform="matrix(0.06172839506172839,0,0,0.06172839506172839,43.14814814814814,0)" xlink:href="#v"/><use transform="matrix(0.06172839506172839,0,0,0.06172839506172839,55.493827160493815,0)" xlink:href="#t"/></g><path fill="#3a414a" d="M108 0H70L1-190h34L89-25l56-165h34" id="F"/><g id="g"><use transform="matrix(0.06172839506172839,0,0,0.06172839506172839,0,0)" xlink:href="#z"/><use transform="matrix(0.06172839506172839,0,0,0.06172839506172839,18.456790123456788,0)" xlink:href="#r"/><use transform="matrix(0.06172839506172839,0,0,0.06172839506172839,30.80246913580247,0)" xlink:href="#F"/><use transform="matrix(0.06172839506172839,0,0,0.06172839506172839,41.91358024691358,0)" xlink:href="#v"/><use transform="matrix(0.06172839506172839,0,0,0.06172839506172839,54.25925925925926,0)" xlink:href="#z"/><use transform="matrix(0.06172839506172839,0,0,0.06172839506172839,72.71604938271605,0)" xlink:href="#v"/><use transform="matrix(0.06172839506172839,0,0,0.06172839506172839,85.06172839506173,0)" xlink:href="#p"/><use transform="matrix(0.06172839506172839,0,0,0.06172839506172839,97.40740740740742,0)" xlink:href="#s"/></g><path fill="#3a414a" d="M185-189c-5-48-123-54-124 2 14 75 158 14 163 119 3 78-121 87-175 55-17-10-28-26-33-46l33-7c5 56 141 63 141-1 0-78-155-14-162-118-5-82 145-84 179-34 5 7 8 16 11 25" id="G"/><path fill="#3a414a" d="M84 4C-5 8 30-112 23-190h32v120c0 31 7 50 39 49 72-2 45-101 50-169h31l1 190h-30c-1-10 1-25-2-33-11 22-28 36-60 37" id="H"/><path fill="#3a414a" d="M85-194c31 0 48 13 60 33l-1-100h32l1 261h-30c-2-10 0-23-3-31C134-8 116 4 85 4 32 4 16-35 15-94c0-66 23-100 70-100zm9 24c-40 0-46 34-46 75 0 40 6 74 45 74 42 0 51-32 51-76 0-42-9-74-50-73" id="I"/><g id="h"><use transform="matrix(0.06172839506172839,0,0,0.06172839506172839,0,0)" xlink:href="#G"/><use transform="matrix(0.06172839506172839,0,0,0.06172839506172839,14.814814814814813,0)" xlink:href="#r"/><use transform="matrix(0.06172839506172839,0,0,0.06172839506172839,27.160493827160494,0)" xlink:href="#H"/><use transform="matrix(0.06172839506172839,0,0,0.06172839506172839,39.50617283950617,0)" xlink:href="#p"/><use transform="matrix(0.06172839506172839,0,0,0.06172839506172839,51.85185185185185,0)" xlink:href="#I"/></g><path fill="#3a414a" d="M190 0L58-211 59 0H30v-248h39L202-35l-2-213h31V0h-41" id="J"/><g id="i"><use transform="matrix(0.06172839506172839,0,0,0.06172839506172839,0,0)" xlink:href="#J"/><use transform="matrix(0.06172839506172839,0,0,0.06172839506172839,15.987654320987653,0)" xlink:href="#D"/><use transform="matrix(0.06172839506172839,0,0,0.06172839506172839,30.80246913580247,0)" xlink:href="#q"/></g><g id="j"><use transform="matrix(0.06172839506172839,0,0,0.06172839506172839,0,0)" xlink:href="#C"/><use transform="matrix(0.06172839506172839,0,0,0.06172839506172839,11.11111111111111,0)" xlink:href="#r"/><use transform="matrix(0.06172839506172839,0,0,0.06172839506172839,23.45679012345679,0)" xlink:href="#p"/><use transform="matrix(0.06172839506172839,0,0,0.06172839506172839,35.80246913580247,0)" xlink:href="#s"/><use transform="matrix(0.06172839506172839,0,0,0.06172839506172839,41.97530864197531,0)" xlink:href="#t"/><use transform="matrix(0.06172839506172839,0,0,0.06172839506172839,49.32098765432099,0)" xlink:href="#r"/><use transform="matrix(0.06172839506172839,0,0,0.06172839506172839,61.666666666666664,0)" xlink:href="#u"/><use transform="matrix(0.06172839506172839,0,0,0.06172839506172839,66.5432098765432,0)" xlink:href="#u"/><use transform="matrix(0.06172839506172839,0,0,0.06172839506172839,71.41975308641975,0)" xlink:href="#v"/><use transform="matrix(0.06172839506172839,0,0,0.06172839506172839,83.76543209876543,0)" xlink:href="#t"/></g><path fill="#3a414a" d="M135-143c-3-34-86-38-87 0 15 53 115 12 119 90S17 21 10-45l28-5c4 36 97 45 98 0-10-56-113-15-118-90-4-57 82-63 122-42 12 7 21 19 24 35" id="K"/><g id="k"><use transform="matrix(0.06172839506172839,0,0,0.06172839506172839,0,0)" xlink:href="#q"/><use transform="matrix(0.06172839506172839,0,0,0.06172839506172839,15.987654320987653,0)" xlink:href="#r"/><use transform="matrix(0.06172839506172839,0,0,0.06172839506172839,28.333333333333332,0)" xlink:href="#u"/><use transform="matrix(0.06172839506172839,0,0,0.06172839506172839,33.20987654320987,0)" xlink:href="#u"/><use transform="matrix(0.06172839506172839,0,0,0.06172839506172839,38.08641975308642,0)" xlink:href="#o"/><use transform="matrix(0.06172839506172839,0,0,0.06172839506172839,42.96296296296296,0)" xlink:href="#K"/><use transform="matrix(0.06172839506172839,0,0,0.06172839506172839,54.074074074074076,0)" xlink:href="#o"/><use transform="matrix(0.06172839506172839,0,0,0.06172839506172839,58.95061728395062,0)" xlink:href="#r"/><use transform="matrix(0.06172839506172839,0,0,0.06172839506172839,71.2962962962963,0)" xlink:href="#p"/></g><path fill="#3a414a" d="M33 0v-248h34V0H33" id="L"/><g id="l"><use transform="matrix(0.06172839506172839,0,0,0.06172839506172839,0,0)" xlink:href="#L"/><use transform="matrix(0.06172839506172839,0,0,0.06172839506172839,6.172839506172839,0)" xlink:href="#s"/><use transform="matrix(0.06172839506172839,0,0,0.06172839506172839,12.345679012345679,0)" xlink:href="#v"/><use transform="matrix(0.06172839506172839,0,0,0.06172839506172839,24.691358024691358,0)" xlink:href="#z"/><use transform="matrix(0.06172839506172839,0,0,0.06172839506172839,43.148148148148145,0)" xlink:href="#K"/></g></defs></g></svg>